<svg width="29" height="26" viewBox="0 0 29 26" fill="none" xmlns="http://www.w3.org/2000/svg">
<path fill-rule="evenodd" clip-rule="evenodd" d="M9.14429 21.8025L9.83703 20.9081H14.9633L17.6353 24.323L17.1603 25.4817H10.5496L10.7079 24.323L9.14429 21.8025Z" fill="#169FCC"/>
<path fill-rule="evenodd" clip-rule="evenodd" d="M10.7114 10.1582L13.1866 5.8804H16.071L28.9997 20.9027L27.9973 25.4817H22.4535L22.8013 24.1964L10.7114 10.1582Z" fill="#14B59A"/>
<path fill-rule="evenodd" clip-rule="evenodd" d="M13.7165 5.06764L14.9017 2.87511L18.4574 0L24.5498 4.77806L23.7596 5.58474L24.8201 7.05332V8.62532L21.7843 11.1074L16.6899 5.06764H13.7165Z" fill="#1BC263"/>
<path fill-rule="evenodd" clip-rule="evenodd" d="M4.30113 14.6212H5.9115L10.1107 11.1075L15.6757 17.5759L14.1061 19.9317H8.96918L5.42227 24.4436L4.60689 25.4818H0V19.9517L4.30113 14.6212Z" fill="#16BDCC"/>
</svg>
