<svg width="16" height="16" viewBox="0 0 16 16" fill="none" xmlns="http://www.w3.org/2000/svg">
<g clip-path="url(#clip0_5711_35)">
<path fill-rule="evenodd" clip-rule="evenodd" d="M10.4271 12.7128C9.38724 13.3482 8.16495 13.7143 6.85714 13.7143C3.07005 13.7143 0 10.6442 0 6.85714C0 3.07005 3.07005 0 6.85714 0C10.6442 0 13.7143 3.07005 13.7143 6.85714C13.7143 8.16495 13.3482 9.38724 12.7128 10.4271L15.4286 13.1429C16.0882 13.8025 16.0948 14.7623 15.4286 15.4286C14.7678 16.0893 13.7992 16.0849 13.1429 15.4286L10.4271 12.7128ZM6.85714 11.4286C9.38187 11.4286 11.4286 9.38187 11.4286 6.85714C11.4286 4.33241 9.38187 2.28571 6.85714 2.28571C4.33241 2.28571 2.28571 4.33241 2.28571 6.85714C2.28571 9.38187 4.33241 11.4286 6.85714 11.4286Z" fill="#B9BABB"/>
</g>
<defs>
<clipPath id="clip0_5711_35">
<rect width="16" height="16" fill="white"/>
</clipPath>
</defs>
</svg>
